<?xml version="1.0" encoding="UTF-8" standalone="no"?>
<!DOCTYPE svg PUBLIC "-//W3C//DTD SVG 20010904//EN"
"http://www.w3.org/TR/2001/REC-SVG-20010904/DTD/svg10.dtd">
<!-- Created with Sodipodi ("http://www.sodipodi.com/") -->
<svg
   xmlns="http://www.w3.org/2000/svg"
   xmlns:sodipodi="http://sodipodi.sourceforge.net/DTD/sodipodi-0.dtd"
   xmlns:xlink="http://www.w3.org/1999/xlink"
   id="svg602"
   sodipodi:version="0.34"
   width="600pt"
   height="600pt"
   xml:space="preserve"
   sodipodi:docname="meanwhile.svg"><defs
   id="defs604"><linearGradient
   id="linearGradient638"><stop
   style="stop-color:#7aff42;stop-opacity:1;"
   offset="0"
   id="stop639" /><stop
   style="stop-color:#8fc7a2;stop-opacity:1;"
   offset="1"
   id="stop640" /></linearGradient><linearGradient
   xlink:href="#linearGradient638"
   id="linearGradient641" /><radialGradient
   xlink:href="#linearGradient638"
   id="radialGradient642"
   cx="0.50793654"
   cy="0.34375"
   r="0.55566943"
   fx="0.50793654"
   fy="0.34375"
   spreadMethod="pad"
   gradientUnits="objectBoundingBox" /></defs><sodipodi:namedview
   id="base" /><path
   style="font-size:12;fill:url(#radialGradient642);stroke:#000000;stroke-width:47.5;stroke-linejoin:round;stroke-dashoffset:0;stroke-dasharray:none;"
   d="M 91.44117 722.5899 L 285.4258 723.8284 C 294.3868 633.604 322.5399 475.1974 377.6711 478.9494 C 432.6313 479.9466 449.6743 637.3932 456.0617 723.4828 L 651.4838 722.9331 C 646.8052 576.4787 605.1558 467.5868 518.6949 360.7497 C 617.2431 298.1496 655.493 231.5443 696.3922 139.0168 L 573.5116 60.82787 C 546.1344 118.4165 446.7694 292.1415 378.8898 232.0369 C 308.6007 292.9743 200.2224 112.6707 179.4516 61.12846 L 50.34299 126.0278 C 96.83205 235.5325 130.363 294.018 237.4712 353.2666 C 146.8402 473.2682 98.98175 565.9043 91.44117 722.5899 z "
   id="path675"
   sodipodi:nodetypes="ccccccccccccc" /><path
   style="font-size:12;fill:url(#radialGradient642);stroke:#000000;stroke-width:45;stroke-linejoin:round;stroke-dashoffset:0;stroke-dasharray:none;"
   d="M 377.6964 279.4885 C 439.2239 281.7197 496.1007 225.9967 498.7656 162.0493 C 501.43 95.73296 441.5976 44.09683 377.0809 43.36746 C 306.1496 44.94652 258.7707 93.8028 253.8887 159.0871 C 247.7133 214.5911 307.834 279.6586 377.6964 279.4885 z "
   id="path676"
   sodipodi:nodetypes="cssss" /></svg>
