<?xml version="1.0" encoding="UTF-8" standalone="no"?>
<!DOCTYPE svg PUBLIC "-//W3C//DTD SVG 20010904//EN"
"http://www.w3.org/TR/2001/REC-SVG-20010904/DTD/svg10.dtd">
<!-- Created with Sodipodi ("http://www.sodipodi.com/") -->
<svg
   xmlns="http://www.w3.org/2000/svg"
   xmlns:sodipodi="http://sodipodi.sourceforge.net/DTD/sodipodi-0.dtd"
   xmlns:xlink="http://www.w3.org/1999/xlink"
   id="svg602"
   sodipodi:version="0.34"
   width="600pt"
   height="600pt"
   xml:space="preserve"
   sodipodi:docname="/home/siege/public_html/gaim/meanwhile.svg"
   sodipodi:docbase="/home/siege/public_html/gaim/"><defs
   id="defs604"><linearGradient
   id="linearGradient638"><stop
   style="stop-color:#7aff42;stop-opacity:1;"
   offset="0"
   id="stop639" /><stop
   style="stop-color:#8fc7a2;stop-opacity:1;"
   offset="1"
   id="stop640" /></linearGradient><linearGradient
   xlink:href="#linearGradient638"
   id="linearGradient641" /><radialGradient
   xlink:href="#linearGradient638"
   id="radialGradient642"
   cx="0.50793654"
   cy="0.34375"
   r="0.55566943"
   fx="0.50793654"
   fy="0.34375"
   spreadMethod="pad"
   gradientUnits="objectBoundingBox" /></defs><sodipodi:namedview
   id="base" /><path
   style="font-size:12;fill:url(#radialGradient642);stroke:#000000;stroke-width:48.52596;stroke-linejoin:round;stroke-dashoffset:0;"
   d="M 118.2286 709.1927 L 290.7847 710.4311 C 299.7457 620.2068 327.8987 459.1207 383.0299 462.8727 C 437.9902 463.8699 455.0331 623.996 461.4206 710.0855 L 632.7346 709.5359 C 628.056 563.0815 593.251 456.869 506.7901 350.0319 C 588.9702 299.9335 646.5662 235.4107 687.1669 116.0957 L 578.8705 52.78954 C 551.4933 110.3781 452.1282 284.1031 384.2486 223.9985 C 313.9596 284.9359 200.2224 104.6323 179.4515 53.09013 L 67.6066 103.1067 C 109.3338 222.1351 160.7253 277.3512 259.4967 345.2282 C 168.8657 465.2298 125.7692 573.9427 118.2286 709.1927 z "
   id="path675"
   sodipodi:nodetypes="ccccccccccccc" /><path
   style="font-size:12;fill:url(#radialGradient642);stroke:#000000;stroke-width:38.84051;stroke-linejoin:round;stroke-dashoffset:0;"
   d="M 383.0552 261.9263 C 439.7808 262.9355 494.2784 215.0973 492.2196 154.0109 C 490.2763 97.0205 449.3259 45.3669 382.4397 44.85291 C 313.789 45.7489 271.3409 102.4125 271.1523 155.8106 C 270.9489 216.2261 325.1329 260.8834 383.0552 261.9263 z "
   id="path676"
   sodipodi:nodetypes="ccccc" /></svg>
